<svg xmlns="http://www.w3.org/2000/svg" xmlns:xlink="http://www.w3.org/1999/xlink" viewBox="0 0 24 24" width="24" height="24" preserveAspectRatio="xMidYMid meet" style="width: 20px; height: 20px; transform: translate3d(0px, 0px, 0px); content-visibility: visible;"><defs><clipPath id="__lottie_element_42"><rect width="24" height="24" x="0" y="0"></rect></clipPath><clipPath id="__lottie_element_44"><path d="M0,0 L600,0 L600,600 L0,600z"></path></clipPath><clipPath id="__lottie_element_51"><path d="M0,0 L1000,0 L1000,1000 L0,1000z"></path></clipPath><clipPath id="__lottie_element_61"><path d="M0,0 L1000,0 L1000,1000 L0,1000z"></path></clipPath><mask id="__lottie_element_62"><rect fill="#ffffff" width="600" height="600" transform="matrix(0.9615384936332703,0,0,0.9615384936332703,211.53846740722656,211.53846740722656)"></rect><path fill="#000000" clip-rule="nonzero" d=" M67.22000122070312,823.7960205078125 C67.22000122070312,823.7960205078125 -126.3030014038086,1017.75 -126.3030014038086,1017.75 -76.63800048828125,1067.092041015625 -76.63800048828125,1067.092041015625 -22.31999969482422,1121.0560302734375 -22.31999969482422,1121.0560302734375 171.2030029296875,927.1019897460938 171.2030029296875,927.1019897460938 239.677001953125,860.3419799804688 186.88099670410156,810.114013671875 C130,756 67.22000122070312,823.7960205078125 67.22000122070312,823.7960205078125" fill-opacity="1"></path></mask><clipPath id="__lottie_element_65"><path d="M0,0 L1000,0 L1000,1000 L0,1000z"></path></clipPath><path></path><clipPath id="__lottie_element_72"><path d="M0,0 L1000,0 L1000,1000 L0,1000z"></path></clipPath><path d=" M0.5009999871253967,-0.10000000149011612 C0.5009999871253967,-0.10000000149011612 -0.09300000220537186,-0.10000000149011612 -0.09300000220537186,-0.10000000149011612 -0.09300000220537186,1.0759999752044678 -0.09300000220537186,1.0759999752044678 0.5009999871253967,1.0759999752044678 0.5009999871253967,1.0759999752044678 0.5009999871253967,-0.10000000149011612 0.5009999871253967,-0.10000000149011612" fill-opacity="1"></path><clipPath id="__lottie_element_79"><path d="M0,0 L1000,0 L1000,1000 L0,1000z"></path></clipPath><mask id="__lottie_element_80"><rect fill="#ffffff" width="600" height="600" transform="matrix(0.9615384936332703,0,0,0.9615384936332703,211.53846740722656,211.53846740722656)"></rect><path fill="#000000" clip-rule="nonzero" d=" M681.219970703125,212.79600524902344 C681.219970703125,212.79600524902344 215.69700622558594,681.75 215.69700622558594,681.75 151.75999450683594,749.2319946289062 201.13699340820312,798.8619995117188 C255,853 319.67999267578125,785.0560302734375 319.67999267578125,785.0560302734375 785.2030029296875,316.10198974609375 785.2030029296875,316.10198974609375 785.2030029296875,316.10198974609375 868,234 816.2150268554688,184.4459991455078 C764.781005859375,135.22799682617188 681.219970703125,212.79600524902344 681.219970703125,212.79600524902344" fill-opacity="1"></path></mask><clipPath id="__lottie_element_83"><path d="M0,0 L1000,0 L1000,1000 L0,1000z"></path></clipPath><path></path><clipPath id="__lottie_element_90"><path d="M0,0 L1000,0 L1000,1000 L0,1000z"></path></clipPath><path d=" M0.5009999871253967,-0.10000000149011612 C0.5009999871253967,-0.10000000149011612 -0.09300000220537186,-0.10000000149011612 -0.09300000220537186,-0.10000000149011612 -0.09300000220537186,1.0759999752044678 -0.09300000220537186,1.0759999752044678 0.5009999871253967,1.0759999752044678 0.5009999871253967,1.0759999752044678 0.5009999871253967,-0.10000000149011612 0.5009999871253967,-0.10000000149011612" fill-opacity="1"></path></defs><g clip-path="url(#__lottie_element_42)"><g clip-path="url(#__lottie_element_44)" transform="matrix(0.03999999910593033,0,0,0.03999999910593033,0,0)" opacity="1" style="display: block;"><g clip-path="url(#__lottie_element_79)" transform="matrix(1.0399999618530273,0,0,1.0399999618530273,-220,-220)" opacity="1" style="display: block;"><g mask="url(#__lottie_element_80)"><g clip-path="url(#__lottie_element_90)" transform="matrix(1,0,0,1,0,0)" opacity="1" style="display: block;"><g transform="matrix(25,0,0,25,200,200)" opacity="1" style="display: block;"><g opacity="1" transform="matrix(1,0,0,1,12,12.288000106811523)"><path fill="#f23f43" fill-opacity="1" d=" M-8.000072479248047,-0.2881828546524048 C-7.999939918518066,-4.706087589263916 -4.418000221252441,-8.288000106811523 0,-8.288000106811523 C4.418000221252441,-8.288000106811523 8,-4.705999851226807 8,-0.2879999876022339 C8,0.4050000011920929 7.953999996185303,1.0720000267028809 7.854000091552734,1.7120000123977661 C7.854000091552734,1.7120000123977661 6,1.7120000123977661 6,1.7120000123977661 C5.056000232696533,1.7120000123977661 4.166999816894531,2.1570000648498535 3.5999999046325684,2.9119999408721924 C3.5999999046325684,2.9119999408721924 1.6269999742507935,5.541999816894531 1.6269999742507935,5.541999816894531 C1.1579999923706055,6.168000221252441 1.03643000125885,6.988057613372803 1.3044586181640625,7.72304105758667 C1.8895213603973389,9.332005500793457 3.8875467777252197,10.287915229797363 5.482487678527832,9.131856918334961 C8.839362144470215,6.700735092163086 10.00019359588623,3.3797173500061035 10.000062942504883,-0.28826361894607544 C9.999899864196777,-5.811119556427002 5.5229997634887695,-10.288000106811523 0,-10.288000106811523 C-5.5229997634887695,-10.288000106811523 -9.99986457824707,-5.81110954284668 -10.000057220458984,-0.2882695198059082 C-10.000213623046875,3.3797030448913574 -8.83936882019043,6.700726509094238 -5.482500076293945,9.131853103637695 C-3.8875625133514404,10.28791332244873 -1.8895366191864014,9.33200740814209 -1.304471492767334,7.7230448722839355 C-1.036441683769226,6.988062381744385 -1.1584053039550781,6.168063640594482 -1.627374529838562,5.54204797744751 C-1.627374529838562,5.54204797744751 -3.600245475769043,2.911982774734497 -3.600245475769043,2.911982774734497 C-4.167208194732666,2.156964063644409 -5.056182384490967,1.7119290828704834 -6.0001749992370605,1.7118881940841675 C-6.0001749992370605,1.7118881940841675 -7.854179859161377,1.7118425369262695 -7.854179859161377,1.7118425369262695 C-7.954162120819092,1.071841835975647 -8.000097274780273,0.40481364727020264 -8.000072479248047,-0.2881828546524048z"></path></g></g></g><g clip-path="url(#__lottie_element_83)" style="display: none;"><g style="display: none;"><g><path></path></g></g></g></g></g><g clip-path="url(#__lottie_element_51)" transform="matrix(1,0,0,1,-200,-200)" opacity="1" style="display: block;"><g style="display: block;" transform="matrix(25,0,0,25,200,200)" opacity="1"><g opacity="1" transform="matrix(1,0,0,1,12,12)"><path stroke-linecap="round" stroke-linejoin="miter" fill-opacity="0" stroke-miterlimit="4" stroke="#f23f43" stroke-opacity="1" stroke-width="2" d=" M-10,10 C-10,10 10,-10 10,-10"></path></g></g><g style="display: none;" transform="matrix(25,0,0,25,200,200)" opacity="1"><g opacity="1" transform="matrix(1,0,0,1,12,12)"><path stroke-linecap="round" stroke-linejoin="miter" fill-opacity="0" stroke-miterlimit="4" stroke="#f23f43" stroke-opacity="1" stroke-width="2" d=" M-10,10 C-10,10 10,-10 10,-10"></path></g></g></g><g style="display: none;"><g><path stroke-linecap="round" stroke-linejoin="miter" fill-opacity="0" stroke-miterlimit="4"></path></g></g></g></g></svg>
