<svg xmlns="http://www.w3.org/2000/svg" viewBox="0 0 24 24" width="24" height="24" preserveAspectRatio="xMidYMid meet" style="width: 20px; height: 20px; transform: translate3d(0px, 0px, 0px); content-visibility: visible;"><g fill="currentColor" fill-opacity="1"><path d="M12 1C6.486 1 2 5.486 2 11v5c0 1.654 1.346 3 3 3h1c.552 0 1-.448 1-1v-4c0-.552-.448-1-1-1H5v-2c0-4.411 3.589-8 8-8s8 3.589 8 8v2h-1c-.552 0-1 .448-1 1v4c0 .552.448 1 1 1h1c1.654 0 3-1.346 3-3v-5c0-5.514-4.486-10-10-10z"/><path d="M6 16h2v2H6zM16 16h2v2h-2z"/></g></svg>